<svg xmlns="http://www.w3.org/2000/svg" xmlns:xlink="http://www.w3.org/1999/xlink" viewBox="0 0 48 48"><defs><style>.cls-1{fill:url(#linear-gradient);}.cls-2{fill:url(#linear-gradient-2);}.cls-3{fill:#fff;}.cls-4{fill:url(#linear-gradient-3);}.cls-5{fill:url(#linear-gradient-4);}.cls-6{fill:url(#linear-gradient-5);}</style><linearGradient id="linear-gradient" x1="-8.14" y1="10.34" x2="36.03" y2="29.11" gradientUnits="userSpaceOnUse"><stop offset="0" stop-color="#00c6ff"/><stop offset="1" stop-color="#007aff"/></linearGradient><linearGradient id="linear-gradient-2" x1="31.58" y1="23.88" x2="31.58" y2="41.4" gradientUnits="userSpaceOnUse"><stop offset="0.02" stop-color="#fff"/><stop offset="0.99" stop-color="#ccf4ff"/></linearGradient><linearGradient id="linear-gradient-3" x1="12.65" y1="21.83" x2="11.83" y2="36.75" gradientUnits="userSpaceOnUse"><stop offset="0" stop-color="#fff"/><stop offset="0.99" stop-color="#ccf4ff"/></linearGradient><linearGradient id="linear-gradient-4" x1="17.51" y1="22.22" x2="16.7" y2="37.13" xlink:href="#linear-gradient-3"/><linearGradient id="linear-gradient-5" x1="22.44" y1="22.21" x2="21.61" y2="37.49" xlink:href="#linear-gradient-3"/></defs><title>Asset 13</title><g id="Layer_2" data-name="Layer 2"><g id="Layer_1-2" data-name="Layer 1"><path class="cls-1" d="M36,0H12A12,12,0,0,0,0,12V36A12,12,0,0,0,12,48H36A12,12,0,0,0,48,36V12A12,12,0,0,0,36,0Z"/><rect class="cls-2" x="29.87" y="22.19" width="3.42" height="14.42" rx="1.71"/><path class="cls-3" d="M25.44,24l10.75-6.22a.75.75,0,0,1,1.12.65v2.16a1,1,0,0,1-.49.87L26.06,27.76a.75.75,0,0,1-1.12-.64V24.86A1,1,0,0,1,25.44,24Z"/><path class="cls-3" d="M33.83,13.77l-8.9-5.09a1.78,1.78,0,0,0-1.8,0L11.67,15.35a1.78,1.78,0,0,0-.89,1.54V31.68a1.66,1.66,0,0,0,1.66,1.66,1.63,1.63,0,0,0,1.65-1.46s0-13.26,0-13.32A1.83,1.83,0,0,1,15,17.23l7.85-4.66.08,0a.45.45,0,0,1,.2,0,.41.41,0,0,1,.19,0s.9.5.9.51a.23.23,0,0,1,.12.2.24.24,0,0,1-.07.17l-7.8,4.71a1.8,1.8,0,0,0-.87,1.51V34.47a1.63,1.63,0,0,0,3.25,0V21.73h0v-.15a1.76,1.76,0,0,1,.87-1.51l7.94-4.79a.5.5,0,0,1,.27-.08l.18,0,.93.5a.23.23,0,0,1,.1.2.24.24,0,0,1-.12.22L21.3,20.8a2,2,0,0,0-1,1.7V37.33a1.64,1.64,0,0,0,3.28,0V24.24a1.76,1.76,0,0,1,.89-1.54l9.34-5.43C35.72,16.27,35.75,14.82,33.83,13.77Z"/><path class="cls-4" d="M12.29,18.51l1.32.8a1,1,0,0,1,.49.86V31.88a1.67,1.67,0,0,1-2.26,1.35,1.69,1.69,0,0,1-1.06-1.61V19.37A1,1,0,0,1,12.29,18.51Z"/><path class="cls-5" d="M17.07,21.4l1.25.75a1,1,0,0,1,.48.85V34.4a1.67,1.67,0,0,1-1.35,1.67,1.63,1.63,0,0,1-1.9-1.6V22.25A1,1,0,0,1,17.07,21.4Z"/><path class="cls-6" d="M23.62,37.33a1.65,1.65,0,0,1-3.29,0V24.24a.5.5,0,0,1,.76-.42l2,1.22a1,1,0,0,1,.48.85Z"/></g></g></svg>