<svg xmlns="http://www.w3.org/2000/svg" xmlns:xlink="http://www.w3.org/1999/xlink" width="24" height="24" viewBox="0 0 24 24">
  <defs>
    <linearGradient id="linear-gradient" x1="-0.762" y1="1.783" x2="-0.754" y2="1.774" gradientUnits="objectBoundingBox">
      <stop offset="0" stop-color="#5f7fa5"/>
      <stop offset="1" stop-color="#425974"/>
    </linearGradient>
  </defs>
  <g id="system" transform="translate(-0.05 -0.05)">
    <path id="Path_102992" data-name="Path 102992" d="M24.05,7.554V5.973a10.565,10.565,0,0,0-.139-1.579,5.265,5.265,0,0,0-.495-1.5,5.044,5.044,0,0,0-2.2-2.206,5.256,5.256,0,0,0-1.51-.5A10.515,10.515,0,0,0,18.124.05H5.969A10.515,10.515,0,0,0,4.391.189a5.256,5.256,0,0,0-1.5.495A5.044,5.044,0,0,0,.689,2.89a5.265,5.265,0,0,0-.5,1.5A10.537,10.537,0,0,0,.05,5.968q0,.36,0,.721V18.132A10.566,10.566,0,0,0,.189,19.71a5.241,5.241,0,0,0,.495,1.5,5.03,5.03,0,0,0,2.2,2.206,5.256,5.256,0,0,0,1.5.495,10.515,10.515,0,0,0,1.578.139H18.119a10.515,10.515,0,0,0,1.578-.139,5.256,5.256,0,0,0,1.5-.495,5.03,5.03,0,0,0,2.2-2.206,5.241,5.241,0,0,0,.495-1.5,10.536,10.536,0,0,0,.139-1.579q0-.36,0-.721v-.86Z" transform="translate(0 0)" fill="url(#linear-gradient)"/>
    <path id="Path_102993" data-name="Path 102993" d="M31.53,21.617h-1a.744.744,0,0,1-.687-.473c-.05-.128-.1-.253-.161-.376a.738.738,0,0,1,.151-.853l.824-.8a.743.743,0,0,0,.019-1.047.142.142,0,0,0-.019-.019l-1.336-1.288a.738.738,0,0,0-1.027,0l-.892.858a.736.736,0,0,1-.8.147q-.224-.1-.453-.184a.735.735,0,0,1-.472-.692V15.74a.739.739,0,0,0-.748-.74H23.349a.739.739,0,0,0-.739.74h0v1a.742.742,0,0,1-.472.69c-.125.05-.25.1-.371.161a.743.743,0,0,1-.857-.151l-.793-.825a.738.738,0,0,0-1.048-.021h0l-.019.021-1.289,1.338a.74.74,0,0,0,0,1.028l.859.893a.733.733,0,0,1,.144.8c-.066.151-.125.3-.182.456a.734.734,0,0,1-.694.482h-1.15a.739.739,0,0,0-.739.74v1.572a.739.739,0,0,0,.739.74h1a.741.741,0,0,1,.689.473c.05.125.1.251.161.373a.743.743,0,0,1-.151.856l-.824.794a.743.743,0,0,0-.021,1.047l.021.021,1.336,1.288a.738.738,0,0,0,1.027,0l.892-.86a.731.731,0,0,1,.8-.142c.151.066.3.128.456.184a.735.735,0,0,1,.472.69v1.153a.739.739,0,0,0,.739.74H24.9a.739.739,0,0,0,.739-.74h0v-1a.747.747,0,0,1,.472-.69c.125-.05.25-.1.373-.161a.745.745,0,0,1,.855.154l.793.825a.741.741,0,0,0,1.046.019l.021-.019,1.287-1.338a.74.74,0,0,0,0-1.028l-.859-.893a.733.733,0,0,1-.146-.806q.1-.225.184-.454a.732.732,0,0,1,.689-.473h1.152a.742.742,0,0,0,.739-.74V22.357A.739.739,0,0,0,31.53,21.617Zm-7.4,4.741a3.214,3.214,0,1,1,3.21-3.214h0A3.212,3.212,0,0,1,24.135,26.358Z" transform="translate(-11.977 -11.226)" fill="#fff"/>
  </g>
</svg>
