<svg xmlns="http://www.w3.org/2000/svg" width="23" height="24" viewBox="0 0 23 24">
  <g id="arrow-ios-back" transform="translate(0)">
    <rect id="Rectangle_47" data-name="Rectangle 47" width="24" height="23" transform="translate(23) rotate(90)" fill="#6f6f6f" opacity="0"/>
    <path id="Path_31" data-name="Path 31" d="M13.648,19a.958.958,0,0,1-.756-.37l-4.68-6a1.025,1.025,0,0,1,0-1.27l4.844-6a.95.95,0,0,1,1.366-.13,1.023,1.023,0,0,1,.126,1.41L10.219,12,14.4,17.36a1.026,1.026,0,0,1,.131,1.07.967.967,0,0,1-.886.57Z" transform="translate(-0.449)" fill="#6f6f6f"/>
  </g>
</svg>
