<svg xmlns="http://www.w3.org/2000/svg" width="20" height="20" viewBox="0 0 24 24">
  <g id="Group_34704" data-name="Group 34704" transform="translate(-1176 -80)">
    <rect id="Rectangle_18483" data-name="Rectangle 18483" width="24" height="24" transform="translate(1176 80)" fill="rgba(255,255,255,0)"/>
    <g id="funnel-outline" transform="translate(1176.002 79)">
      <g id="Group_34703" data-name="Group 34703">
        <g id="Layer_2" data-name="Layer 2">
          <path id="funnel" d="M13.9,22a1,1,0,0,1-.6-.2l-4-3.05a1,1,0,0,1-.39-.8V14.68L4.11,5.46A1,1,0,0,1,5,4H19a.99.99,0,0,1,.86,1.49l-5,9.21V21a.983.983,0,0,1-.96,1Zm-3-4.54,2,1.53V14.44A1,1,0,0,1,13,14l4.3-8H6.64l4.13,8a1,1,0,0,1,.11.46Z" fill="#707070"/>
        </g>
      </g>
    </g>
  </g>
</svg>
