<svg xmlns="http://www.w3.org/2000/svg" width="24" height="24" viewBox="0 0 24 24"><g transform="translate(-74 -647)"><g transform="translate(11619 8030)"><g transform="translate(-11545 -7383)"><path d="M0,0H24V24H0Z" opacity="0"/><g transform="translate(12 12)"><path d="M0,0H24V24H0Z" transform="translate(-12 -12)" fill="none"/><g transform="translate(0 -2)"><rect width="18" height="4" rx="1" transform="translate(-9 -2)" fill="none" stroke="#65696e" stroke-linecap="round" stroke-linejoin="round" stroke-width="2"/></g><g transform="translate(0 2.5)"><path d="M0,0V13" transform="translate(0 -6.5)" fill="none" stroke="#65696e" stroke-linecap="round" stroke-linejoin="round" stroke-width="2"/></g><g transform="translate(0 4.5)"><path d="M19,12v7a2,2,0,0,1-2,2H7a2,2,0,0,1-2-2V12" transform="translate(-12 -16.5)" fill="none" stroke="#65696e" stroke-linecap="round" stroke-linejoin="round" stroke-width="2"/></g><g transform="translate(0 -6.5)"><path d="M7.5,8a2.5,2.5,0,0,1,0-5c1.974-.034,3.76,1.949,4.5,5,.74-3.051,2.526-5.034,4.5-5a2.5,2.5,0,0,1,0,5" transform="translate(-12 -5.5)" fill="none" stroke="#65696e" stroke-linecap="round" stroke-linejoin="round" stroke-width="2"/></g></g></g></g></g></svg>