<svg id="Group_45497" data-name="Group 45497" xmlns="http://www.w3.org/2000/svg" width="24" height="24" viewBox="0 0 24 24">
  <rect id="Rectangle_19756" data-name="Rectangle 19756" width="24" height="24" fill="none" opacity="0"/>
  <path id="Path_36209" data-name="Path 36209" d="M4,19V9A2,2,0,0,1,6,7h4a2,2,0,0,1,1.664.891L13.07,10H18a2,2,0,0,1,2,2v7a2,2,0,0,1-2,2H6A2,2,0,0,1,4,19Z" fill="none" stroke="#8f94ab" stroke-linecap="round" stroke-linejoin="round" stroke-width="2"/>
  <path id="Path_36210" data-name="Path 36210" d="M5,3H17a2,2,0,0,1,2,2V6" fill="none" stroke="#8f94ab" stroke-linecap="round" stroke-linejoin="round" stroke-width="2"/>
  <path id="Path_36211" data-name="Path 36211" d="M10,15l2,2,3-3" fill="none" stroke="#8f94ab" stroke-linecap="round" stroke-linejoin="round" stroke-width="2"/>
</svg>
