<svg id="Group_45496" data-name="Group 45496" xmlns="http://www.w3.org/2000/svg" width="24" height="24" viewBox="0 0 24 24">
  <rect id="Rectangle_19739" data-name="Rectangle 19739" width="24" height="24" transform="translate(0)" fill="none"/>
  <path id="Path_34910" data-name="Path 34910" d="M20.739,17.233" fill="none" stroke="#666" stroke-width="2"/>
  <path id="Path_34911" data-name="Path 34911" d="M2.739,17.233" fill="none" stroke="#666" stroke-width="2"/>
  <g id="Group_44905" data-name="Group 44905">
    <circle id="Ellipse_2247" data-name="Ellipse 2247" cx="2" cy="2" r="2" transform="translate(5 6)" fill="none" stroke="#8f94ab" stroke-width="2"/>
    <circle id="Ellipse_2248" data-name="Ellipse 2248" cx="2" cy="2" r="2" transform="translate(15 6)" fill="none" stroke="#8f94ab" stroke-width="2"/>
    <path id="Path_34909" data-name="Path 34909" d="M10,12.194a4,4,0,0,0-3-1.361H7a4.012,4.012,0,0,0-4,4v1.836a1.009,1.009,0,0,0,.478.863A17.43,17.43,0,0,0,12,20.033a17.43,17.43,0,0,0,8.522-2.5A1.009,1.009,0,0,0,21,16.669V14.833a4.012,4.012,0,0,0-4-4h0A4,4,0,0,0,14.183,12" fill="none" stroke="#8f94ab" stroke-linecap="round" stroke-linejoin="round" stroke-width="2"/>
    <g id="Group_44904" data-name="Group 44904">
      <circle id="Ellipse_2249" data-name="Ellipse 2249" cx="2" cy="2" r="2" transform="translate(10 11)" fill="none" stroke="#8f94ab" stroke-width="2"/>
      <path id="Path_34912" data-name="Path 34912" d="M9,19v-.967a3,3,0,0,1,3-3h0a3,3,0,0,1,3,3V19" fill="none" stroke="#8f94ab" stroke-width="2"/>
    </g>
  </g>
</svg>
