<svg id="Group_45499" data-name="Group 45499" xmlns="http://www.w3.org/2000/svg" width="24" height="24" viewBox="0 0 24 24">
  <rect id="Rectangle_19758" data-name="Rectangle 19758" width="24" height="24" fill="none" opacity="0"/>
  <path id="Path_36212" data-name="Path 36212" d="M20,8.828V19a2,2,0,0,1-2,2H6a2,2,0,0,1-2-2V5A2,2,0,0,1,6,3h8.172a2,2,0,0,1,1.414.586l3.828,3.828A2,2,0,0,1,20,8.828Z" fill="none" stroke="#8f94ab" stroke-linecap="round" stroke-linejoin="round" stroke-width="2"/>
  <path id="Path_36213" data-name="Path 36213" d="M14,4V7a2,2,0,0,0,2,2h3" fill="none" stroke="#8f94ab" stroke-linecap="round" stroke-linejoin="round" stroke-width="2"/>
  <line id="Line_336" data-name="Line 336" x2="3.999" transform="translate(9 13)" fill="none" stroke="#8f94ab" stroke-linecap="round" stroke-linejoin="round" stroke-width="2"/>
  <line id="Line_337" data-name="Line 337" x2="1.999" transform="translate(9 9)" fill="none" stroke="#8f94ab" stroke-linecap="round" stroke-linejoin="round" stroke-width="2"/>
  <line id="Line_338" data-name="Line 338" x2="6" transform="translate(9 17)" fill="none" stroke="#8f94ab" stroke-linecap="round" stroke-linejoin="round" stroke-width="2"/>
</svg>
