<svg xmlns="http://www.w3.org/2000/svg" xmlns:xlink="http://www.w3.org/1999/xlink" width="24" height="24" viewBox="0 0 24 24">
  <defs>
    <clipPath id="clip-path">
      <rect id="SVGID" width="24" height="24" transform="translate(-168.267 -82.391)" fill="none"/>
    </clipPath>
  </defs>
  <g id="Setting_24px" data-name="Setting 24px" transform="translate(168.267 82.391)" clip-path="url(#clip-path)">
    <g id="Group_45493" data-name="Group 45493">
      <circle id="Ellipse_2200" data-name="Ellipse 2200" cx="2.727" cy="2.727" r="2.727" transform="translate(-158.994 -73.119)" fill="none" stroke="#8f94ab" stroke-linecap="round" stroke-linejoin="round" stroke-width="2"/>
      <path id="Path_36108" data-name="Path 36108" d="M-149.54-67.664a1.5,1.5,0,0,0,.3,1.655l.055.054a1.818,1.818,0,0,1,0,2.571v0a1.819,1.819,0,0,1-2.572,0h0l-.055-.055a1.5,1.5,0,0,0-1.654-.3,1.5,1.5,0,0,0-.909,1.373v.155a1.818,1.818,0,0,1-1.818,1.818,1.818,1.818,0,0,1-1.819-1.818v-.082a1.5,1.5,0,0,0-.981-1.373,1.5,1.5,0,0,0-1.655.3l-.054.055a1.819,1.819,0,0,1-2.572,0h0a1.819,1.819,0,0,1,0-2.572h0l.054-.055a1.5,1.5,0,0,0,.3-1.654,1.5,1.5,0,0,0-1.372-.909h-.155a1.818,1.818,0,0,1-1.818-1.819,1.818,1.818,0,0,1,1.818-1.818h.082a1.5,1.5,0,0,0,1.373-.982,1.5,1.5,0,0,0-.3-1.654l-.055-.055a1.818,1.818,0,0,1,0-2.571h0a1.818,1.818,0,0,1,2.571,0l0,0,.054.054a1.5,1.5,0,0,0,1.655.3h.073a1.5,1.5,0,0,0,.909-1.373v-.154a1.818,1.818,0,0,1,1.818-1.818,1.818,1.818,0,0,1,1.818,1.818v.082a1.5,1.5,0,0,0,.909,1.372,1.5,1.5,0,0,0,1.655-.3l.054-.054a1.819,1.819,0,0,1,2.572,0v0a1.818,1.818,0,0,1,0,2.571v0l-.055.054a1.5,1.5,0,0,0-.3,1.655v.072a1.5,1.5,0,0,0,1.373.91h.155a1.818,1.818,0,0,1,1.818,1.818,1.818,1.818,0,0,1-1.818,1.818h-.082A1.5,1.5,0,0,0-149.54-67.664Z" fill="none" stroke="#8f94ab" stroke-linecap="round" stroke-linejoin="round" stroke-width="2"/>
    </g>
  </g>
</svg>
