<svg id="Group_45495" data-name="Group 45495" xmlns="http://www.w3.org/2000/svg" width="24" height="24" viewBox="0 0 24 24">
  <g id="Group_44820" data-name="Group 44820">
    <path id="Path_36125" data-name="Path 36125" d="M4,8V6A1.83,1.83,0,0,1,6,4H8" fill="none" stroke="#8f94ab" stroke-linecap="round" stroke-linejoin="round" stroke-width="2"/>
    <path id="Path_36126" data-name="Path 36126" d="M8,20H6a1.83,1.83,0,0,1-2-2V16" fill="none" stroke="#8f94ab" stroke-linecap="round" stroke-linejoin="round" stroke-width="2"/>
    <path id="Path_36127" data-name="Path 36127" d="M20,16v2a1.83,1.83,0,0,1-2,2H16" fill="none" stroke="#8f94ab" stroke-linecap="round" stroke-linejoin="round" stroke-width="2"/>
    <path id="Path_36128" data-name="Path 36128" d="M16,4h2a1.83,1.83,0,0,1,2,2V8" fill="none" stroke="#8f94ab" stroke-linecap="round" stroke-linejoin="round" stroke-width="2"/>
    <circle id="Ellipse_2209" data-name="Ellipse 2209" cx="2" cy="2" r="2" transform="translate(10 7)" fill="none" stroke="#8f94ab" stroke-linecap="round" stroke-linejoin="round" stroke-width="2"/>
    <path id="Path_36129" data-name="Path 36129" d="M8,16a4,4,0,1,1,8,0" fill="none" stroke="#8f94ab" stroke-linecap="round" stroke-linejoin="round" stroke-width="2"/>
  </g>
  <rect id="Rectangle_19704" data-name="Rectangle 19704" width="24" height="24" fill="none"/>
</svg>
