<svg xmlns="http://www.w3.org/2000/svg" width="24" height="24" viewBox="0 0 24 24">
  <g id="Group_52333" data-name="Group 52333" transform="translate(-602 -495)">
    <rect id="Rectangle_19756" data-name="Rectangle 19756" width="24" height="24" transform="translate(602 495)" fill="none"/>
    <path id="Path_36209" data-name="Path 36209" d="M606,515V504.375A2.56,2.56,0,0,1,608,502h4a3.551,3.551,0,0,1,1.665,1.22L615.07,506H620a2,2,0,0,1,2,2v7a2,2,0,0,1-2,2H608A2,2,0,0,1,606,515Z" transform="translate(0 -1)" fill="none" stroke="#8f98ab" stroke-linecap="round" stroke-linejoin="round" stroke-width="2"/>
    <path id="Path_36211" data-name="Path 36211" d="M617,501h4" transform="translate(0 -1)" fill="none" stroke="#8f98ab" stroke-linecap="round" stroke-linejoin="round" stroke-width="2"/>
    <path id="Path_36211-2" data-name="Path 36211" d="M619,499v4" transform="translate(0 -1)" fill="none" stroke="#8f98ab" stroke-linecap="round" stroke-linejoin="round" stroke-width="2"/>
    <path id="Path_36318" data-name="Path 36318" d="M611,513h8" transform="translate(-1 -0.72)" fill="none" stroke="#8f98ab" stroke-linecap="round" stroke-linejoin="round" stroke-width="2"/>
    <path id="Path_36318-2" data-name="Path 36318" d="M610,510h5" transform="translate(0 -1.56)" fill="none" stroke="#8f98ab" stroke-linecap="round" stroke-linejoin="round" stroke-width="2"/>
  </g>
</svg>
