<svg xmlns="http://www.w3.org/2000/svg" width="24" height="24" viewBox="0 0 24 24">
  <g id="Group_52123" data-name="Group 52123" transform="translate(3243 417)">
    <path id="Shape" d="M0,0H24V24H0Z" transform="translate(-3243 -417)" fill="rgba(0,0,0,0)" fill-rule="evenodd"/>
    <g id="Iconly_Two-tone_Graph" data-name="Iconly Two-tone Graph" transform="translate(-5217.397 -2007.371)">
      <g id="Graph-8">
        <path id="Stroke_1-109" data-name="Stroke 1-109" d="M1992.678,1604.24a1.1,1.1,0,0,1,1.145,1.054,1.069,1.069,0,0,1-.007.169,8.109,8.109,0,0,1-16.116-1.275,8.436,8.436,0,0,1,5.957-7.9,1.085,1.085,0,0,1,1.334.759,1.039,1.039,0,0,1,.038.248c0,4.728.159,5.952,1.057,6.617S1988.04,1604.24,1992.678,1604.24Z" fill="none" stroke="#8f98ab" stroke-linecap="round" stroke-linejoin="round" stroke-width="2"/>
        <path id="Stroke_3-86" data-name="Stroke 3-86" d="M1997.093,1600.3c.053-3.038-3.678-7.935-8.226-7.852a.68.68,0,0,0-.652.655c-.115,2.5.04,5.735.126,7.2a.89.89,0,0,0,.841.842,40.554,40.554,0,0,0,7.325-.168A.7.7,0,0,0,1997.093,1600.3Z" fill="none" stroke="#8f98ab" stroke-linecap="round" stroke-linejoin="round" stroke-width="2"/>
      </g>
    </g>
  </g>
</svg>
