<svg xmlns="http://www.w3.org/2000/svg" width="20" height="20" viewBox="0 0 20 20">
  <path id="Path_36299" data-name="Path 36299" d="M11.543,3.988a.461.461,0,0,1,.247.077,12.866,12.866,0,0,1,4.143,4.148.461.461,0,1,1-.792.474c-.069-.115-.157-.221-.231-.334l-2.623,2.74a.148.148,0,0,0-.04.128h0a8.284,8.284,0,0,1,.061.916,4.545,4.545,0,0,1-.645,2.391,1.1,1.1,0,0,1-1.71.2l-2.02-2.019-3.14,3.14a.461.461,0,1,1-.652-.652l3.14-3.14-2.019-2.02a1.1,1.1,0,0,1,.2-1.71,4.547,4.547,0,0,1,2.391-.645h0a6.294,6.294,0,0,1,.886.085.154.154,0,0,0,.134-.04L11.615,5.1c-.119-.082-.2-.18-.325-.26a.461.461,0,0,1,.253-.852Zm.8,1.694L9.51,8.392a1.082,1.082,0,0,1-.913.286h0A5.882,5.882,0,0,0,7.848,8.6h0a3.6,3.6,0,0,0-1.909.512.166.166,0,0,0-.024.268l4.691,4.691a.166.166,0,0,0,.268-.024,3.6,3.6,0,0,0,.512-1.909,7.638,7.638,0,0,0-.053-.808s0,0,0,0a1.083,1.083,0,0,1,.289-.879l2.751-2.873A12.262,12.262,0,0,0,12.342,5.682Z" fill="#0165d4"/>
</svg>
