<svg xmlns="http://www.w3.org/2000/svg" width="18" height="18" viewBox="0 0 17 20">
  <path id="Path_91" data-name="Path 91" d="M202.619,217.08l.675-.717a1.772,1.772,0,0,0,.338-1.964,8.892,8.892,0,0,0-.741-1.276,1.773,1.773,0,0,0-1.87-.682l-.8.193a6.422,6.422,0,0,0-2.187-1.2l-.265-.883a1.773,1.773,0,0,0-1.53-1.275q-.363-.029-.734-.029t-.734.029a1.773,1.773,0,0,0-1.53,1.275l-.265.883a6.422,6.422,0,0,0-2.187,1.2l-.8-.193a1.773,1.773,0,0,0-1.87.682,8.892,8.892,0,0,0-.741,1.276,1.772,1.772,0,0,0,.338,1.964l.675.717a8.49,8.49,0,0,0,0,2.34l-.675.717a1.772,1.772,0,0,0-.338,1.964,8.892,8.892,0,0,0,.741,1.276,1.773,1.773,0,0,0,1.87.682l.8-.193a6.422,6.422,0,0,0,2.187,1.2l.265.883a1.772,1.772,0,0,0,1.53,1.275q.363.029.734.029t.734-.029a1.772,1.772,0,0,0,1.53-1.275l.265-.883a6.422,6.422,0,0,0,2.187-1.2l.8.193a1.773,1.773,0,0,0,1.87-.682,8.892,8.892,0,0,0,.741-1.276,1.772,1.772,0,0,0-.338-1.964l-.675-.717A8.49,8.49,0,0,0,202.619,217.08Zm-7.129,4.17c-4,0-4-6,0-6S199.49,221.25,195.49,221.25Z" transform="translate(-186.161 -208.25)" fill="none" stroke="#464646" stroke-linecap="round" stroke-linejoin="round" stroke-width="2"/>
</svg>
